<?xml version="1.0" encoding="utf-8"?>
<!-- Generator: Adobe Illustrator 27.8.1, SVG Export Plug-In . SVG Version: 6.00 Build 0)  -->
<svg version="1.1" id="Layer_2_00000135676605958861550190000005981408306560868531_"
	 xmlns="http://www.w3.org/2000/svg" xmlns:xlink="http://www.w3.org/1999/xlink" x="0px" y="0px" viewBox="0 0 124.6 123.3"
	 style="enable-background:new 0 0 124.6 123.3;" xml:space="preserve">
<style type="text/css">
	.st0{fill:none;stroke:#111827;stroke-width:3;stroke-linecap:round;stroke-miterlimit:10;}
	.st1{fill:#111827;}
</style>
<g id="Layer_1-2">
	<g>
		<path class="st0" d="M123.1,70c-1.7,10.5-9.8,18.9-20.2,21h-13"/>
		<path class="st0" d="M104.4,33c0,2.8-0.6,5.5-1.8,7.9c9.9,1.8,17.7,9.4,20.1,19.1"/>
		<path class="st0" d="M90.2,15c4.7,1.1,8.7,4,11.3,8"/>
		<path class="st0" d="M46.6,1.7c1.1-0.1,2.2-0.2,3.3-0.2c11.3,0,21.1,6.6,25.7,16.1c1.3-0.9,2.8-1.6,4.3-2.1"/>
		<path class="st0" d="M22.6,21.8c2.2-7.4,7.4-13.5,14.1-17"/>
		<path class="st0" d="M1.5,60c1-11.8,9.3-21.6,20.4-24.8c-0.2-1-0.3-2.1-0.4-3.2"/>
		<path class="st0" d="M36.9,91h-7C16.8,91,5.7,82.1,2.4,70"/>
		<line class="st0" x1="79.9" y1="91" x2="46.9" y2="91"/>
		<path class="st1" d="M71.3,48c0.6,0,1,0.7,0.7,1.2L67.5,57l-4.3,7.5l-3.5,6c-0.4,0.7-1.5,0.4-1.5-0.4V57H51c-0.6,0-1-0.7-0.7-1.2
			l4.5-7.8l3.4-5.9l3.5-6c0.4-0.7,1.5-0.4,1.5,0.4V48H71.3z"/>
	</g>
	<g>
		<path class="st1" d="M42,122.9l-6.1-10.2h1.9l5.2,9l5.1-9h1.8l-6,10.2H42L42,122.9z"/>
		<path class="st1" d="M64,117.8c0,1-0.2,1.9-0.5,2.6s-0.8,1.3-1.3,1.7s-1.3,0.7-2.2,0.9s-1.8,0.3-3,0.3s-2.1-0.1-3-0.3
			s-1.6-0.5-2.2-0.9c-0.6-0.4-1-1-1.3-1.7s-0.5-1.6-0.5-2.6s0.2-1.9,0.5-2.6s0.8-1.3,1.3-1.7s1.3-0.7,2.2-0.9s1.8-0.3,3-0.3
			s2.1,0.1,3,0.3s1.6,0.5,2.2,0.9c0.6,0.4,1,1,1.3,1.7C63.9,115.9,64,116.8,64,117.8z M62.4,117.8c0-0.8-0.1-1.4-0.3-2s-0.5-1-1-1.3
			s-1-0.6-1.6-0.7c-0.7-0.1-1.5-0.2-2.4-0.2s-1.7,0.1-2.4,0.2s-1.2,0.4-1.6,0.7c-0.4,0.3-0.7,0.8-1,1.3c-0.2,0.5-0.3,1.2-0.3,2
			s0.1,1.4,0.3,2s0.5,1,1,1.3s1,0.6,1.6,0.7c0.7,0.1,1.5,0.2,2.4,0.2s1.7-0.1,2.4-0.2s1.2-0.4,1.6-0.7s0.7-0.8,1-1.3
			C62.3,119.2,62.4,118.6,62.4,117.8z"/>
		<path class="st1" d="M65.9,122.9v-10.2h1.6v8.8h10.7v1.4C78.2,122.9,65.9,122.9,65.9,122.9z"/>
		<path class="st1" d="M81.6,122.9V114h-5.5v-1.4h12.6v1.4h-5.5v8.9H81.6L81.6,122.9z"/>
	</g>
</g>
</svg>
