<?xml version="1.0" encoding="UTF-8"?>
<svg id="Layer_2" data-name="Layer 2" xmlns="http://www.w3.org/2000/svg" viewBox="0 0 124.58 123.27">
  <defs>
    <style>
      .cls-1 {
        fill: #fff;
        stroke-width: 0px;
      }

      .cls-2 {
        fill: none;
        stroke: #fff;
        stroke-linecap: round;
        stroke-miterlimit: 10;
        stroke-width: 3px;
      }
    </style>
  </defs>
  <g id="Layer_1-2" data-name="Layer 1">
    <g>
      <path class="cls-2" d="m123.08,70c-1.66,10.53-9.77,18.93-20.16,21h-13.03"/>
      <path class="cls-2" d="m104.39,33c0,2.84-.64,5.54-1.78,7.94,9.87,1.84,17.73,9.37,20.07,19.06"/>
      <path class="cls-2" d="m90.18,15c4.72,1.12,8.73,4.04,11.28,8"/>
      <path class="cls-2" d="m46.57,1.69c1.09-.13,2.2-.19,3.32-.19,11.31,0,21.09,6.59,25.69,16.14,1.33-.89,2.77-1.62,4.31-2.15"/>
      <path class="cls-2" d="m22.59,21.78c2.22-7.4,7.37-13.53,14.1-17.05"/>
      <path class="cls-2" d="m1.5,60c1.03-11.85,9.3-21.61,20.37-24.85-.2-1.03-.33-2.08-.41-3.15"/>
      <path class="cls-2" d="m36.89,91h-7c-13.14,0-24.21-8.9-27.5-21"/>
      <line class="cls-2" x1="79.89" y1="91" x2="46.89" y2="91"/>
      <path class="cls-1" d="m71.32,48c.63,0,1.03.69.71,1.23l-4.49,7.77-4.31,7.47-3.47,6c-.42.73-1.53.43-1.53-.41v-13.06h-7.16c-.63,0-1.03-.69-.71-1.23l4.49-7.77,3.38-5.86,3.47-6c.42-.73,1.53-.43,1.53.41v11.45h8.09Z"/>
    </g>
    <g>
      <path class="cls-1" d="m42.04,122.94l-6.13-10.24h1.86l5.25,8.96,5.1-8.96h1.77l-5.95,10.24h-1.91Z"/>
      <path class="cls-1" d="m64.02,117.82c0,1.03-.15,1.89-.45,2.59-.3.7-.75,1.26-1.33,1.68-.58.42-1.31.73-2.17.91s-1.85.27-2.97.27-2.11-.09-2.97-.27-1.59-.48-2.18-.91c-.59-.42-1.04-.98-1.34-1.68s-.45-1.56-.45-2.59.15-1.89.45-2.59.75-1.26,1.34-1.68c.59-.42,1.32-.73,2.18-.91s1.85-.27,2.97-.27,2.11.09,2.97.27,1.59.48,2.17.91c.59.42,1.03.98,1.33,1.68.3.7.45,1.56.45,2.59Zm-1.65,0c0-.78-.1-1.43-.3-1.96-.2-.53-.52-.96-.95-1.28s-.98-.55-1.64-.7c-.67-.14-1.46-.21-2.39-.21s-1.73.07-2.39.21c-.67.14-1.21.37-1.64.7-.43.32-.74.75-.95,1.28-.2.53-.3,1.18-.3,1.96s.1,1.43.3,1.96c.2.53.52.96.95,1.28.43.32.98.55,1.64.7.67.14,1.46.21,2.39.21s1.72-.07,2.39-.21c.67-.14,1.21-.37,1.64-.7s.74-.75.95-1.28c.2-.53.3-1.18.3-1.96Z"/>
      <path class="cls-1" d="m65.87,122.94v-10.24h1.59v8.79h10.7v1.45h-12.29Z"/>
      <path class="cls-1" d="m81.57,122.94v-8.88h-5.51v-1.36h12.6v1.36h-5.51v8.88h-1.59Z"/>
    </g>
  </g>
</svg>